<svg width="111" height="34" viewBox="0 0 111 34" fill="none" xmlns="http://www.w3.org/2000/svg">
<path d="M9.74951 18.5359L15.8695 1.73589H19.5415L25.6855 18.5359H22.2535L17.6935 5.43189L13.1335 18.5359H9.74951ZM12.4615 14.7199L13.3015 12.1999H21.8695L22.7095 14.7199H12.4615ZM33.9126 18.8239C32.3286 18.8239 30.9446 18.4719 29.7606 17.7679C28.5766 17.0479 27.6566 16.0479 27.0006 14.7679C26.3446 13.4719 26.0166 11.9679 26.0166 10.2559C26.0166 8.52789 26.3526 7.00789 27.0246 5.69589C27.6966 4.36789 28.6646 3.32789 29.9286 2.57589C31.1926 1.82389 32.7046 1.44789 34.4646 1.44789C36.4326 1.44789 38.0646 1.91989 39.3606 2.86389C40.6726 3.80789 41.5206 5.11989 41.9046 6.79989H38.2806C38.0406 6.06389 37.5926 5.48789 36.9366 5.07189C36.2966 4.63989 35.4646 4.42389 34.4406 4.42389C33.3526 4.42389 32.4246 4.66389 31.6566 5.14389C30.8886 5.62389 30.3046 6.29589 29.9046 7.15989C29.5046 8.02389 29.3046 9.05589 29.3046 10.2559C29.3046 11.4719 29.5046 12.5039 29.9046 13.3519C30.3046 14.1999 30.8726 14.8479 31.6086 15.2959C32.3606 15.7279 33.2406 15.9439 34.2486 15.9439C35.7206 15.9439 36.8326 15.5519 37.5846 14.7679C38.3526 13.9679 38.8086 12.9359 38.9526 11.6719H34.8246V9.24789H42.2166V18.5359H39.2166L38.9766 16.3999C38.6246 16.9279 38.2086 17.3759 37.7286 17.7439C37.2646 18.0959 36.7206 18.3599 36.0966 18.5359C35.4726 18.7279 34.7446 18.8239 33.9126 18.8239ZM44.8613 18.5359V1.73589H48.1013V18.5359H44.8613ZM51.014 18.5359V1.73589H54.254V16.0159H61.622V18.5359H51.014ZM64.0338 18.5359V1.73589H67.2738V18.5359H64.0338ZM83.6047 18.5359V1.73589H94.6687V4.35189H86.8447V8.74389H93.9487V11.2639H86.8447V15.9199H94.6687V18.5359H83.6047ZM97.2339 18.5359V1.73589H100.474V18.5359H97.2339Z" fill="#1E1E1E"/>
<path d="M69.7304 18.5359V16.0399L77.3624 4.42389H69.7784V1.73589H81.1064V4.23189L73.4024 15.8479H81.1304V18.5359H69.7304Z" fill="#DB4E1E"/>
</svg>
